<?xml version="1.0" encoding="UTF-8"?>
<svg id="Camada_1" data-name="Camada 1" xmlns="http://www.w3.org/2000/svg" viewBox="0 0 1000 1000">
  <defs>
    <style>
      .cls-1 {
        fill: #49fb18;
      }

      .cls-2 {
        fill: #fefefe;
      }
    </style>
  </defs>
  <path class="cls-2" d="M425.75,350.13l-48.26,102.24h135.36l49.89-102.24h70.75l-98.15,204.47h269.5c1.4,0,9.06-2.37,10.78-3.12,11.2-4.91,21.02-18.05,21.53-30.42,18.42.32,36.1,10.83,34.25,31.4-2.62,29.16-34.8,54.19-61.89,59.97-104.97,1.75-210.43.92-315.43,1.91-18.95.18-37.93-.2-56.87-.04l44.98-94.87h-137l-47.03,96.51h-72.79l128.41-265.82h71.97Z"/>
  <polygon class="cls-2" points="335.78 350.13 302.22 420.03 200.14 421.42 106.37 615.95 31.53 615.95 125.59 421.29 19.26 421.29 58.11 350.13 335.78 350.13"/>
  <path class="cls-1" d="M990.73,348.5c.12,1.98-.79,3.69-1.49,5.45-3.91,9.8-10.35,29.78-17.69,37.11-2.27,2.27-4.87,2.37-9.82,2.37-78.96,0-158.26.4-237.13.95-49.61,6.79-99.45,63.2-59.39,109.49-45.22-1.82-57.54-39.2-41.04-77.42,18.06-41.82,66.14-75.42,111.75-78l254.81.04Z"/>
  <path class="cls-1" d="M94.51,260.57C179.94,209.29,414.61,71.17,500,19.83c135.77,79.91,272.6,159.34,407.49,240.74v72.38h-25.37l.09-51.07L500,61.6c-131.24,77.42-247.06,141.3-377.35,220.29v51.07h-28.14v-72.39"/>
  <path class="cls-1" d="M868.38,503.89c-.33,1.07-.95,1.98-2.05,1.87-3.41-.33-8.45-.43-12.11-.41-39.97.18-93.47,1.75-132.02-.59-15.84-.97-32.64-7.74-38.39-23.77-12.59-35.06,24.92-62.49,56.42-63.77l228.18-.02c.9.11.31,1.11.08,1.71-3.49,8.86-9.38,18.04-13.2,27-.3.7-.79,1.3-1.42,1.72h0c-.64.43-1.4.66-2.18.66h-218.57c-.17-.01-.34,0-.51.02-15.39,1.81-30.61,18.35-10.12,25.55.34.12.69.19,1.04.21,18.99,1.03,109.29.52,122.22.45.62,0,1.75,0,5.33,0,2.41,0,4.72.99,6.36,2.76,5.03,5.44,13.98,13.57,10.94,26.62h0Z"/>
  <path class="cls-1" d="M917.01,593.97c-20.74,33.8-72.07,62.56-111.75,64.51-150.28.19-300.58-.18-450.9-1.11l-.58-.53c23.91-10.06,48.79-18.18,73.19-27l377.09.04c33.39-2.26,75.68-25.07,86.64-57.31,7.52-22.12,6.75-49.49-10.05-61.61,8.25-24.02-9.84-35.05-12.12-36.33-.06-.03-.03-.13.03-.13,45.59.27,78.4,70.64,48.45,119.47Z"/>
  <path class="cls-1" d="M882.12,703.91v-56.27l25.37-13.99h0v94.41c-85.43,51.28-321.1,189.69-406.49,241.03-135.78-79.91-271.6-159.49-406.49-240.89v-94.55h28.37l-.23,73.92,378.35,219.75c131.24-77.42,250.82-143.41,381.12-222.4v-1.01Z"/>
</svg>